<mxfile host="65bd71144e" modified="2021-02-16T19:18:16.239Z" agent="5.0 (X11; Linux x86_64) AppleWebKit/537.36 (KHTML, like Gecko) Code/1.53.0 Chrome/87.0.4280.141 Electron/11.2.1 Safari/537.36" version="14.2.4" etag="xXBJwbd7DbYQcNPuJGJe" type="embed">
    <diagram id="0INBnTmvtomJxh12pcO8" name="Page-1">
        <mxGraphModel dx="2324" dy="1140" grid="1" gridSize="10" guides="1" tooltips="1" connect="1" arrows="1" fold="1" page="1" pageScale="1" pageWidth="850" pageHeight="1100" background="#9999FF" math="0" shadow="0">
            <root>
                <mxCell id="0"/>
                <mxCell id="1" parent="0"/>
                <mxCell id="11" style="edgeStyle=orthogonalEdgeStyle;orthogonalLoop=1;jettySize=auto;html=1;strokeColor=#1A1A1A;" edge="1" parent="1" source="5" target="6">
                    <mxGeometry relative="1" as="geometry"/>
                </mxCell>
                <mxCell id="21" value="trigger" style="edgeLabel;html=1;align=center;verticalAlign=middle;resizable=0;points=[];labelBackgroundColor=none;fontColor=#000000;fontStyle=1;fontSize=13;" vertex="1" connectable="0" parent="11">
                    <mxGeometry x="-0.1353" y="1" relative="1" as="geometry">
                        <mxPoint y="-14" as="offset"/>
                    </mxGeometry>
                </mxCell>
                <mxCell id="5" value="&lt;b&gt;Bucket with&lt;br&gt;objects&lt;/b&gt;" style="outlineConnect=0;fontColor=#232F3E;gradientColor=none;strokeColor=#232F3E;fillColor=#ffffff;dashed=0;verticalLabelPosition=bottom;verticalAlign=top;align=center;html=1;fontSize=12;fontStyle=0;aspect=fixed;shape=mxgraph.aws4.resourceIcon;resIcon=mxgraph.aws4.bucket_with_objects;" vertex="1" parent="1">
                    <mxGeometry x="40" y="120" width="90" height="90" as="geometry"/>
                </mxCell>
                <mxCell id="12" value="invoke" style="orthogonalLoop=1;jettySize=auto;html=1;strokeColor=#1A1A1A;" edge="1" parent="1">
                    <mxGeometry relative="1" as="geometry">
                        <mxPoint x="330" y="200" as="sourcePoint"/>
                        <mxPoint x="330" y="380" as="targetPoint"/>
                    </mxGeometry>
                </mxCell>
                <mxCell id="6" value="" style="outlineConnect=0;fontColor=#232F3E;gradientColor=none;strokeColor=#232F3E;fillColor=#ffffff;dashed=0;verticalLabelPosition=bottom;verticalAlign=top;align=center;html=1;fontSize=12;fontStyle=0;aspect=fixed;shape=mxgraph.aws4.resourceIcon;resIcon=mxgraph.aws4.lambda_function;connectable=0;" vertex="1" parent="1">
                    <mxGeometry x="320" y="120" width="90" height="90" as="geometry"/>
                </mxCell>
                <mxCell id="10" value="&lt;b&gt;&lt;span style=&quot;color: rgb(35 , 47 , 62)&quot;&gt;Parent Lambda&lt;/span&gt;&lt;br style=&quot;color: rgb(35 , 47 , 62)&quot;&gt;&lt;span style=&quot;color: rgb(35 , 47 , 62)&quot;&gt;Function&lt;/span&gt;&lt;/b&gt;" style="text;html=1;strokeColor=none;fillColor=none;align=center;verticalAlign=middle;whiteSpace=wrap;" vertex="1" parent="1">
                    <mxGeometry x="325" y="80" width="95" height="40" as="geometry"/>
                </mxCell>
                <mxCell id="13" value="response" style="orthogonalLoop=1;jettySize=auto;html=1;strokeColor=#1A1A1A;startArrow=classic;startFill=1;endArrow=none;endFill=0;" edge="1" parent="1">
                    <mxGeometry relative="1" as="geometry">
                        <mxPoint x="400" y="210" as="sourcePoint"/>
                        <mxPoint x="400" y="390" as="targetPoint"/>
                    </mxGeometry>
                </mxCell>
                <mxCell id="9" value="&lt;b&gt;Child Lambda&lt;br&gt;Function&lt;/b&gt;" style="outlineConnect=0;fontColor=#232F3E;gradientColor=none;strokeColor=#232F3E;fillColor=#ffffff;dashed=0;verticalLabelPosition=bottom;verticalAlign=top;align=center;html=1;fontSize=12;fontStyle=0;aspect=fixed;shape=mxgraph.aws4.resourceIcon;resIcon=mxgraph.aws4.lambda_function;connectable=0;" vertex="1" parent="1">
                    <mxGeometry x="325" y="380" width="90" height="90" as="geometry"/>
                </mxCell>
                <mxCell id="18" style="rounded=0;orthogonalLoop=1;jettySize=auto;html=1;fontColor=#000000;" edge="1" parent="1" source="15">
                    <mxGeometry relative="1" as="geometry">
                        <mxPoint x="330" y="320" as="targetPoint"/>
                    </mxGeometry>
                </mxCell>
                <mxCell id="15" value="&lt;div style=&quot;line-height: 16px ; font-size: 10px&quot;&gt;&lt;div style=&quot;line-height: 16px&quot;&gt;&lt;div&gt;&lt;font style=&quot;font-size: 10px&quot;&gt;{&lt;/font&gt;&lt;/div&gt;&lt;div&gt;&lt;font style=&quot;font-size: 10px&quot;&gt;&amp;nbsp; &quot;message&quot;: &quot;Crado Readme.txt&quot;,&lt;/font&gt;&lt;/div&gt;&lt;div&gt;&lt;font style=&quot;font-size: 10px&quot;&gt;&amp;nbsp;&quot;event&quot;: {&lt;/font&gt;&lt;/div&gt;&lt;div&gt;&lt;font style=&quot;font-size: 10px&quot;&gt;&amp;nbsp; &amp;nbsp; &quot;Records&quot;: [ Object]&lt;/font&gt;&lt;/div&gt;&lt;div&gt;&lt;font&gt;&amp;nbsp; },&lt;/font&gt;&lt;/div&gt;&lt;div&gt;&lt;font style=&quot;font-size: 10px&quot;&gt;&amp;nbsp; &quot;success&quot;: true,&lt;/font&gt;&lt;/div&gt;&lt;div&gt;&lt;font style=&quot;font-size: 10px&quot;&gt;&amp;nbsp; &quot;buket_out&quot;: &quot;alucloud-lambda-out&quot;,&lt;/font&gt;&lt;/div&gt;&lt;div&gt;&lt;font style=&quot;font-size: 10px&quot;&gt;&amp;nbsp; &quot;key&quot;: &quot;31/Readme.txt&quot;,&lt;/font&gt;&lt;/div&gt;&lt;div&gt;&lt;font style=&quot;font-size: 10px&quot;&gt;&amp;nbsp; &quot;operation_id&quot;: &quot;5d8af597-d71a-49c0-a169-73d9a10089d9&quot;&lt;/font&gt;&lt;/div&gt;&lt;div&gt;&lt;font style=&quot;font-size: 10px&quot;&gt;}&lt;/font&gt;&lt;/div&gt;&lt;/div&gt;&lt;/div&gt;" style="whiteSpace=wrap;html=1;autosize=1;align=left;fillColor=#FFFFFF;labelBackgroundColor=none;glass=0;rounded=0;fontColor=#000000;sketch=0;shadow=1;" vertex="1" parent="1">
                    <mxGeometry x="-20" y="280" width="280" height="160" as="geometry"/>
                </mxCell>
                <mxCell id="20" style="edgeStyle=none;rounded=0;orthogonalLoop=1;jettySize=auto;html=1;fontColor=#000000;" edge="1" parent="1" source="19">
                    <mxGeometry relative="1" as="geometry">
                        <mxPoint x="400" y="240" as="targetPoint"/>
                    </mxGeometry>
                </mxCell>
                <mxCell id="19" value="&lt;div style=&quot;line-height: 16px&quot;&gt;&lt;div style=&quot;line-height: 16px&quot;&gt;&lt;div&gt;&lt;span style=&quot;font-size: 10px&quot;&gt;{&lt;/span&gt;&lt;/div&gt;&lt;div&gt;&lt;span style=&quot;font-size: 10px&quot;&gt;&amp;nbsp; &amp;nbsp;&quot;ETag&quot;: &quot;\&quot;41b22f8069d765d6d96e0c133589ec71\&quot;&quot;,&lt;/span&gt;&lt;/div&gt;&lt;div&gt;&lt;span style=&quot;font-size: 10px&quot;&gt;&amp;nbsp; &amp;nbsp;&quot;VersionId&quot;: &quot;ceTN86HR6x2qSRSceuhPl.bzZ5iT_w7f&quot;,&lt;/span&gt;&lt;/div&gt;&lt;div&gt;&lt;span style=&quot;font-size: 10px&quot;&gt;&amp;nbsp; &amp;nbsp;&quot;Location&quot;: &quot;https://alucloud-lambda-out.s3.amazonaws.com&lt;/span&gt;&lt;/div&gt;&lt;div&gt;&lt;span style=&quot;font-size: 10px&quot;&gt;&amp;nbsp; &amp;nbsp; &amp;nbsp;/31/CURRENT_LIST_RESULTS.html&quot;,&lt;/span&gt;&lt;/div&gt;&lt;div&gt;&lt;span style=&quot;font-size: 10px&quot;&gt;&amp;nbsp; &amp;nbsp;&quot;key&quot;: &quot;31/CURRENT_LIST_RESULTS.html&quot;,&lt;/span&gt;&lt;/div&gt;&lt;div&gt;&lt;span style=&quot;font-size: 10px&quot;&gt;&amp;nbsp; &amp;nbsp;&quot;Key&quot;: &quot;31/CURRENT_LIST_RESULTS.html&quot;,&lt;/span&gt;&lt;/div&gt;&lt;div&gt;&lt;span style=&quot;font-size: 10px&quot;&gt;&amp;nbsp; &amp;nbsp;&quot;Bucket&quot;: &quot;alucloud-lambda-out&quot;,&lt;/span&gt;&lt;/div&gt;&lt;div&gt;&lt;span style=&quot;font-size: 10px&quot;&gt;&amp;nbsp; &amp;nbsp;&quot;message&quot;: &quot;Check and Summary HTML Created&quot;&lt;/span&gt;&lt;/div&gt;&lt;div&gt;&lt;span style=&quot;font-size: 10px&quot;&gt;}&lt;/span&gt;&lt;/div&gt;&lt;/div&gt;&lt;/div&gt;" style="whiteSpace=wrap;html=1;autosize=1;align=left;fillColor=#FFFFFF;labelBackgroundColor=none;glass=0;rounded=0;fontColor=#000000;sketch=0;shadow=1;" vertex="1" parent="1">
                    <mxGeometry x="470" y="200" width="280" height="180" as="geometry"/>
                </mxCell>
                <mxCell id="22" value="alucloud-lambda" style="text;html=1;strokeColor=none;fillColor=none;align=center;verticalAlign=middle;whiteSpace=wrap;rounded=0;shadow=1;glass=0;labelBackgroundColor=none;sketch=0;fontSize=13;fontColor=#000000;" vertex="1" parent="1">
                    <mxGeometry x="37" y="101" width="100" height="20" as="geometry"/>
                </mxCell>
                <mxCell id="23" value="lambda-markdown-alucloud31" style="text;html=1;strokeColor=none;fillColor=none;align=center;verticalAlign=middle;whiteSpace=wrap;rounded=0;shadow=1;glass=0;labelBackgroundColor=none;sketch=0;fontSize=13;fontColor=#000000;" vertex="1" parent="1">
                    <mxGeometry x="272" y="68" width="200" height="20" as="geometry"/>
                </mxCell>
                <mxCell id="24" value="lambda-check-alucloud31" style="text;html=1;strokeColor=none;fillColor=none;align=center;verticalAlign=middle;whiteSpace=wrap;rounded=0;shadow=1;glass=0;labelBackgroundColor=none;sketch=0;fontSize=13;fontColor=#000000;" vertex="1" parent="1">
                    <mxGeometry x="294" y="504" width="160" height="20" as="geometry"/>
                </mxCell>
            </root>
        </mxGraphModel>
    </diagram>
</mxfile>